<svg width="188" height="152" viewBox="0 0 188 152" fill="none" xmlns="http://www.w3.org/2000/svg">
<path d="M175.831 151.196C174.777 151.196 173.817 150.529 173.468 149.506C173.39 149.29 167.926 134.88 134.679 115.352C106.278 98.67 76.389 97.373 67.906 97.373C67.441 97.373 67.022 97.376 66.654 97.382C65.467 101.123 61.963 103.842 57.834 103.842H52.043L57.936 138.634C58.211 140.265 57.757 141.925 56.69 143.188C55.624 144.451 54.063 145.175 52.41 145.175H39.706C36.962 145.175 34.638 143.211 34.18 140.506L27.971 103.842H19.833C14.732 103.842 10.583 99.693 10.583 94.592V92.217H6.981C3.131 92.217 0 89.085 0 85.235V65.949C0 62.099 3.132 58.967 6.981 58.967H10.583V56.592C10.583 51.491 14.732 47.342 19.833 47.342H57.833C61.962 47.342 65.467 50.061 66.653 53.802C67.021 53.807 67.44 53.811 67.905 53.811C76.388 53.811 106.277 52.515 134.678 35.832C168.01 16.254 173.417 1.81998 173.467 1.67698C173.873 0.529978 175.051 -0.168022 176.251 0.034978C177.451 0.240978 178.332 1.26998 178.332 2.48798V53.797C183.467 54.884 187.332 59.453 187.332 64.907V86.277C187.332 91.732 183.467 96.3 178.332 97.387V148.696C178.332 149.923 177.442 150.968 176.231 151.164C176.098 151.185 175.964 151.196 175.831 151.196ZM33.042 103.842L39.109 139.671C39.159 139.963 39.41 140.175 39.706 140.175H52.408C52.639 140.175 52.787 140.058 52.87 139.961C52.953 139.863 53.044 139.698 53.005 139.468L46.971 103.842H33.042ZM67.905 92.373C79.187 92.373 108.526 94.192 137.212 111.04C157.691 123.069 168.133 133.33 173.333 139.953V11.231C168.133 17.854 157.691 28.114 137.212 40.144C108.526 56.991 79.188 58.81 67.905 58.81C67.614 58.81 67.34 58.809 67.083 58.807V92.376C67.34 92.374 67.614 92.373 67.905 92.373ZM49.083 98.842H57.833C60.177 98.842 62.083 96.935 62.083 94.592V56.592C62.083 54.249 60.177 52.342 57.833 52.342H19.833C17.489 52.342 15.583 54.249 15.583 56.592V94.592C15.583 96.935 17.489 98.842 19.833 98.842H49.083ZM178.333 59.003V92.181C180.675 91.243 182.333 88.95 182.333 86.277V64.907C182.333 62.234 180.675 59.941 178.333 59.003ZM6.981 63.967C5.889 63.967 5 64.856 5 65.949V85.235C5 86.328 5.889 87.217 6.981 87.217H10.583V63.967H6.981Z" fill="black"/>
</svg>
