<svg width="169" height="169" viewBox="0 0 169 169" fill="none" xmlns="http://www.w3.org/2000/svg">
<path d="M168.968 3.18968C168.943 2.99492 168.913 2.80751 168.854 2.61643C168.792 2.40697 168.708 2.21588 168.612 2.02112C168.561 1.91456 168.542 1.80064 168.48 1.69775C168.439 1.6316 168.373 1.58751 168.325 1.52504C168.204 1.356 168.061 1.20901 167.91 1.05835C167.759 0.907684 167.609 0.768045 167.436 0.646779C167.374 0.602682 167.333 0.540212 167.271 0.503465C167.168 0.440995 167.054 0.426296 166.947 0.37485C166.745 0.275632 166.547 0.191114 166.334 0.128644C166.154 0.0808724 165.977 0.0551493 165.793 0.033101C165.577 0.00737801 165.367 -0.00732086 165.15 0.0037033C164.948 0.0147274 164.754 0.0551494 164.555 0.102921C164.43 0.132318 164.302 0.121294 164.177 0.165391L2.489 55.2862C1.02647 55.7786 0.0306168 57.1419 0.00121907 58.6889C-0.0281787 60.236 0.912549 61.6361 2.36039 62.191L77.9016 91.2176L110.544 166.784C111.128 168.133 112.459 169 113.917 169C113.98 169 114.039 169 114.101 168.997C115.634 168.919 116.953 167.902 117.419 166.443L168.866 4.75511C168.902 4.6412 168.891 4.52361 168.913 4.40602C168.957 4.20023 168.99 4.0018 168.998 3.79234C169.005 3.58655 168.994 3.39179 168.968 3.18968ZM14.4576 58.9646L151.587 12.2148L79.7499 84.0518L14.4576 58.9646ZM113.392 154.849L85.0232 89.1744L157.279 16.9148L113.392 154.849Z" fill="black"/>
</svg>
