<svg width="193" height="85" viewBox="0 0 193 85" fill="none" xmlns="http://www.w3.org/2000/svg">
<path d="M150.14 84.6985C150.134 84.6985 150.129 84.6985 150.123 84.6985H2.5C1.119 84.6985 0 83.5795 0 82.1985V39.7835C0 39.7175 0.001 39.6505 0.006 39.5845C0.039 39.0975 0.213 38.6475 0.485 38.2765C0.589 38.1335 0.711 38.0015 0.846 37.8815C0.848 37.8795 0.848 37.8795 0.85 37.8775C0.887 37.8455 0.924 37.8145 0.962 37.7845L47.866 0.543501C48.308 0.192501 48.856 0.00150131 49.421 0.00150131H190.488C190.608 -0.00449869 190.711 0.00850122 190.821 0.0225012C190.826 0.0225012 190.83 0.0245001 190.833 0.0245001H190.834C191.139 0.0655001 191.43 0.162502 191.694 0.305502C191.695 0.306502 191.696 0.306501 191.697 0.307501C191.697 0.307501 191.697 0.307501 191.698 0.307501C191.913 0.425501 192.108 0.572502 192.276 0.742502C192.463 0.931502 192.621 1.1515 192.742 1.3965C192.835 1.5855 192.905 1.7875 192.948 1.9965C192.948 1.9975 192.948 1.9985 192.948 1.9985C192.948 1.9995 192.948 2.0005 192.948 2.0015C192.984 2.1745 193 2.3505 192.999 2.5235V13.9755C192.999 13.9805 192.999 13.9855 192.999 13.9895V24.5515C192.999 24.5565 192.999 24.5615 192.999 24.5655V35.2325C192.999 35.2375 192.999 35.2425 192.999 35.2465V45.0235C192.999 45.7215 192.707 46.3885 192.193 46.8625L151.834 84.0385C151.832 84.0405 151.829 84.0425 151.827 84.0455C151.824 84.0485 151.821 84.0475 151.819 84.0535C151.819 84.0535 151.818 84.0535 151.818 84.0545C151.398 84.4345 150.849 84.6735 150.244 84.6985C150.209 84.6975 150.175 84.6985 150.14 84.6985ZM102.76 79.6985H147.64V74.3405H102.76V79.6985ZM53.839 79.6985H97.76V42.2575H53.839V79.6985ZM5 79.6985H48.839V74.3405H5V79.6985ZM152.641 73.5885V76.4965L188 43.9265V40.9495L152.641 73.5885ZM102.76 69.3405H147.64V63.2025H102.76V69.3405ZM5 69.3405H48.839V63.2025H5V69.3405ZM152.641 62.9075V66.7835L188 34.1445V30.2685L152.641 62.9075ZM102.76 58.2025H147.64V52.5035H102.76V58.2025ZM5 58.2025H48.839V52.5035H5V58.2025ZM152.641 52.3325V56.1035L188 23.4645V19.6935L152.641 52.3325ZM102.76 47.5035H147.64V42.2575H102.76V47.5035ZM5 47.5035H48.839V42.2575H5V47.5035ZM152.641 40.8515V45.5275L188 12.8885V8.2115L152.641 40.8515ZM106.641 37.2575H149.163L184.106 5.0025H141.481L136.583 9.5375C138.227 10.4705 139.865 11.8915 140.465 13.9925C141.267 16.7985 140.013 19.8065 136.74 22.9365C128.742 30.5825 116.478 31.4535 112.818 31.5385L106.641 37.2575ZM58.267 37.2575H99.281L110.118 27.2245C110.128 27.2145 110.138 27.2055 110.148 27.1965L134.12 5.0035H97.133L87.354 13.1185C87.328 13.1405 87.302 13.1625 87.275 13.1835L58.267 37.2575ZM9.669 37.2575H50.437L59.381 29.8345C57.903 28.9455 56.52 27.6335 56.071 25.7345C55.016 21.2685 59.896 17.5395 61.5 16.3135C71.292 8.8315 81.538 8.5405 84.888 8.6665L89.304 5.0025H50.293L9.669 37.2575ZM78.2 14.2175C74.307 14.9555 69.333 16.6205 64.536 20.2865C61.445 22.6495 60.83 24.1325 60.937 24.5855C61.07 25.1495 62.343 25.8715 63.636 26.3035L78.2 14.2175ZM132.618 13.2075L118.941 25.8705C123.434 25.0555 129.164 23.2625 133.285 19.3225C135.006 17.6765 135.893 16.1995 135.659 15.3685C135.418 14.5185 133.982 13.6965 132.618 13.2075Z" fill="#000002"/>
</svg>
