<svg width="170" height="170" viewBox="0 0 170 170" fill="none" xmlns="http://www.w3.org/2000/svg">
<path d="M168.403 32.8293L124.669 0.489749C124.296 0.21455 123.855 0.0481105 123.393 0.00895921C122.932 -0.030192 122.469 0.0594814 122.055 0.267996C121.642 0.476511 121.294 0.795685 121.051 1.18999C120.809 1.58429 120.68 2.03824 120.68 2.50132V17.799C69.2683 21.8779 47.5843 47.4007 38.4486 68.2669C26.2305 96.1673 31.1572 128.886 42.7376 143.198C43.0884 143.63 43.5732 143.933 44.1155 144.059C44.6577 144.185 45.2264 144.127 45.7317 143.893C46.237 143.66 46.65 143.264 46.9055 142.77C47.161 142.275 47.2444 141.71 47.1425 141.162C43.4067 121.29 47.3555 102.514 58.56 86.8529C71.7131 68.4628 94.2464 55.517 120.686 51.0592V67.1947C120.686 67.658 120.814 68.1122 121.057 68.5068C121.3 68.9013 121.648 69.2206 122.061 69.4292C122.475 69.6378 122.939 69.7274 123.4 69.688C123.862 69.6486 124.303 69.4818 124.676 69.2062L168.41 36.8524C168.725 36.6198 168.98 36.3166 169.156 35.9672C169.332 35.6179 169.424 35.2321 169.424 34.8408C169.424 34.4496 169.332 34.0638 169.156 33.7145C168.98 33.3651 168.725 33.0619 168.41 32.8293H168.403ZM125.684 62.2308V48.1369C125.684 47.7781 125.607 47.4234 125.458 47.097C125.309 46.7706 125.091 46.48 124.82 46.2451C124.549 46.0102 124.23 45.8364 123.886 45.7356C123.542 45.6348 123.18 45.6092 122.824 45.6607C93.8104 49.8354 68.9009 63.7892 54.4854 83.9406C45.0142 97.0769 40.1976 112.998 40.799 129.182C35.3547 114.456 33.7463 91.4836 43.0336 70.2785C51.7547 50.3701 72.7611 25.9425 123.346 22.6299C123.981 22.5881 124.575 22.3064 125.01 21.8419C125.444 21.3775 125.685 20.7651 125.684 20.1294V7.46376L162.713 34.8423L125.684 62.2308Z" fill="black"/>
<path d="M141.625 67.0517C140.961 67.0517 140.325 67.3153 139.856 67.7845C139.387 68.2537 139.123 68.8901 139.123 69.5537V164.413H5.00391V30.2944H58.6887C59.3522 30.2944 59.9886 30.0308 60.4578 29.5616C60.927 29.0924 61.1906 28.456 61.1906 27.7925C61.1906 27.1289 60.927 26.4925 60.4578 26.0233C59.9886 25.5541 59.3522 25.2905 58.6887 25.2905H2.50195C1.83851 25.2909 1.20235 25.5546 0.733223 26.0238C0.264098 26.4929 0.000378786 27.129 0 27.7925V166.915C0.000378786 167.579 0.264098 168.215 0.733223 168.684C1.20235 169.153 1.83851 169.417 2.50195 169.417H141.625C142.288 169.417 142.924 169.153 143.394 168.684C143.863 168.215 144.126 167.579 144.127 166.915V69.5537C144.126 68.8902 143.863 68.2541 143.394 67.7849C142.924 67.3158 142.288 67.0521 141.625 67.0517Z" fill="black"/>
</svg>
